<svg width="500" height="407" viewBox="0 0 500 407" fill="none" xmlns="http://www.w3.org/2000/svg">
<path d="M20 0.5H480C490.77 0.5 499.5 9.23045 499.5 20V336C499.5 346.77 490.77 355.5 480 355.5H20C9.23046 355.5 0.5 346.77 0.5 336V20C0.5 9.23044 9.23045 0.5 20 0.5Z" stroke="#E7E7E7"/>
<g clip-path="url(#clip0_4_559)">
<path d="M1 105H499V194H1V105Z" fill="white"/>
<path d="M446 149H464V151H446V149Z" fill="#0057FF"/>
<path d="M454 141H456V159H454V141Z" fill="#0057FF"/>
<path d="M42.008 157V144.04H43.816V149.64H47.144V144.04H48.952V157H47.144V150.936H43.816V157H42.008ZM54.2888 157.144C53.4141 157.144 52.7154 156.973 52.1928 156.632C51.6701 156.291 51.2968 155.805 51.0728 155.176C50.8488 154.536 50.7368 153.789 50.7368 152.936V148.024C50.7368 147.171 50.8488 146.44 51.0728 145.832C51.3074 145.213 51.6808 144.744 52.1928 144.424C52.7154 144.093 53.4141 143.928 54.2888 143.928C55.1634 143.928 55.8568 144.093 56.3688 144.424C56.8808 144.755 57.2488 145.224 57.4728 145.832C57.7074 146.44 57.8248 147.171 57.8248 148.024V152.952C57.8248 153.795 57.7074 154.531 57.4728 155.16C57.2488 155.789 56.8808 156.28 56.3688 156.632C55.8568 156.973 55.1634 157.144 54.2888 157.144ZM54.2888 155.72C54.7688 155.72 55.1314 155.624 55.3768 155.432C55.6221 155.229 55.7874 154.952 55.8728 154.6C55.9581 154.237 56.0008 153.816 56.0008 153.336V147.656C56.0008 147.176 55.9581 146.765 55.8728 146.424C55.7874 146.072 55.6221 145.805 55.3768 145.624C55.1314 145.432 54.7688 145.336 54.2888 145.336C53.8088 145.336 53.4408 145.432 53.1848 145.624C52.9394 145.805 52.7741 146.072 52.6888 146.424C52.6034 146.765 52.5608 147.176 52.5608 147.656V153.336C52.5608 153.816 52.6034 154.237 52.6888 154.6C52.7741 154.952 52.9394 155.229 53.1848 155.432C53.4408 155.624 53.8088 155.72 54.2888 155.72ZM61.2818 157L59.1698 144.04H60.6738L62.0658 153.352L63.8098 144.088H65.0898L66.8498 153.4L68.2098 144.04H69.6818L67.6018 157H66.2898L64.4818 147.4L62.6578 157H61.2818ZM74.8823 157L75.1223 144.04H76.8983L79.1863 154.552L81.4903 144.04H83.2503L83.4903 157H82.0343L81.8903 147.592L79.6983 157H78.6743L76.4983 147.592L76.3543 157H74.8823ZM88.8208 157.144C87.8821 157.144 87.1621 156.957 86.6608 156.584C86.1594 156.211 85.8181 155.688 85.6368 155.016C85.4554 154.333 85.3648 153.539 85.3648 152.632V144.04H87.0928V152.712C87.0928 153.267 87.1301 153.773 87.2048 154.232C87.2794 154.691 87.4394 155.053 87.6848 155.32C87.9408 155.587 88.3194 155.72 88.8208 155.72C89.3328 155.72 89.7114 155.587 89.9568 155.32C90.2021 155.053 90.3621 154.691 90.4368 154.232C90.5114 153.773 90.5488 153.267 90.5488 152.712V144.04H92.2608V152.632C92.2608 153.539 92.1701 154.333 91.9888 155.016C91.8074 155.688 91.4661 156.211 90.9648 156.584C90.4741 156.957 89.7594 157.144 88.8208 157.144ZM97.4123 157.144C96.4949 157.144 95.7803 156.952 95.2682 156.568C94.7669 156.184 94.4149 155.667 94.2122 155.016C94.0203 154.365 93.9243 153.64 93.9243 152.84V148.264C93.9243 147.389 94.0203 146.627 94.2122 145.976C94.4149 145.325 94.7669 144.824 95.2682 144.472C95.7803 144.109 96.4949 143.928 97.4123 143.928C98.2229 143.928 98.8629 144.077 99.3323 144.376C99.8123 144.675 100.154 145.101 100.356 145.656C100.57 146.211 100.676 146.877 100.676 147.656V148.68H98.9643V147.768C98.9643 147.288 98.9376 146.867 98.8843 146.504C98.8416 146.131 98.7136 145.843 98.5003 145.64C98.2869 145.437 97.9296 145.336 97.4283 145.336C96.9163 145.336 96.5429 145.448 96.3083 145.672C96.0736 145.885 95.9189 146.195 95.8443 146.6C95.7803 146.995 95.7483 147.459 95.7483 147.992V153.128C95.7483 153.779 95.8016 154.296 95.9083 154.68C96.0149 155.053 96.1909 155.32 96.4363 155.48C96.6816 155.64 97.0123 155.72 97.4283 155.72C97.9189 155.72 98.2709 155.613 98.4843 155.4C98.6976 155.176 98.8309 154.872 98.8843 154.488C98.9376 154.104 98.9643 153.656 98.9643 153.144V152.184H100.676V153.144C100.676 153.933 100.58 154.632 100.388 155.24C100.196 155.837 99.8656 156.307 99.3963 156.648C98.9269 156.979 98.2656 157.144 97.4123 157.144ZM102.399 157V144.04H104.207V149.64H107.535V144.04H109.343V157H107.535V150.936H104.207V157H102.399ZM116.448 157V145.384H114.256V144.04H120.384V145.384H118.256V157H116.448ZM121.633 157V144.04H124.241C125.105 144.04 125.82 144.157 126.385 144.392C126.95 144.616 127.366 144.984 127.633 145.496C127.91 145.997 128.049 146.659 128.049 147.48C128.049 147.981 127.996 148.44 127.889 148.856C127.782 149.261 127.612 149.608 127.377 149.896C127.142 150.173 126.833 150.376 126.449 150.504L128.289 157H126.545L124.849 150.92H123.441V157H121.633ZM123.441 149.624H124.129C124.641 149.624 125.057 149.56 125.377 149.432C125.697 149.304 125.932 149.085 126.081 148.776C126.23 148.467 126.305 148.035 126.305 147.48C126.305 146.723 126.166 146.179 125.889 145.848C125.612 145.507 125.062 145.336 124.241 145.336H123.441V149.624ZM129.226 157L131.978 144.04H133.722L136.49 157H134.778L134.186 153.736H131.546L130.922 157H129.226ZM131.786 152.44H133.946L132.858 146.6L131.786 152.44ZM137.805 157V144.04H142.813V145.336H139.613V149.656H142.093V150.936H139.613V157H137.805ZM144.055 157V144.04H149.063V145.336H145.863V149.656H148.343V150.936H145.863V157H144.055ZM150.401 157V144.04H152.177V157H150.401ZM157.522 157.144C156.604 157.144 155.89 156.952 155.378 156.568C154.876 156.184 154.524 155.667 154.322 155.016C154.13 154.365 154.034 153.64 154.034 152.84V148.264C154.034 147.389 154.13 146.627 154.322 145.976C154.524 145.325 154.876 144.824 155.378 144.472C155.89 144.109 156.604 143.928 157.522 143.928C158.332 143.928 158.972 144.077 159.442 144.376C159.922 144.675 160.263 145.101 160.466 145.656C160.679 146.211 160.786 146.877 160.786 147.656V148.68H159.074V147.768C159.074 147.288 159.047 146.867 158.994 146.504C158.951 146.131 158.823 145.843 158.61 145.64C158.396 145.437 158.039 145.336 157.538 145.336C157.026 145.336 156.652 145.448 156.418 145.672C156.183 145.885 156.028 146.195 155.954 146.6C155.89 146.995 155.858 147.459 155.858 147.992V153.128C155.858 153.779 155.911 154.296 156.018 154.68C156.124 155.053 156.3 155.32 156.546 155.48C156.791 155.64 157.122 155.72 157.538 155.72C158.028 155.72 158.38 155.613 158.594 155.4C158.807 155.176 158.94 154.872 158.994 154.488C159.047 154.104 159.074 153.656 159.074 153.144V152.184H160.786V153.144C160.786 153.933 160.69 154.632 160.498 155.24C160.306 155.837 159.975 156.307 159.506 156.648C159.036 156.979 158.375 157.144 157.522 157.144ZM169.412 157.144C168.495 157.144 167.78 156.952 167.268 156.568C166.767 156.184 166.415 155.667 166.212 155.016C166.02 154.365 165.924 153.64 165.924 152.84V148.264C165.924 147.389 166.02 146.627 166.212 145.976C166.415 145.325 166.767 144.824 167.268 144.472C167.78 144.109 168.495 143.928 169.412 143.928C170.223 143.928 170.863 144.077 171.332 144.376C171.812 144.675 172.154 145.101 172.356 145.656C172.57 146.211 172.676 146.877 172.676 147.656V148.68H170.964V147.768C170.964 147.288 170.938 146.867 170.884 146.504C170.842 146.131 170.714 145.843 170.5 145.64C170.287 145.437 169.93 145.336 169.428 145.336C168.916 145.336 168.543 145.448 168.308 145.672C168.074 145.885 167.919 146.195 167.844 146.6C167.78 146.995 167.748 147.459 167.748 147.992V153.128C167.748 153.779 167.802 154.296 167.908 154.68C168.015 155.053 168.191 155.32 168.436 155.48C168.682 155.64 169.012 155.72 169.428 155.72C169.919 155.72 170.271 155.613 170.484 155.4C170.698 155.176 170.831 154.872 170.884 154.488C170.938 154.104 170.964 153.656 170.964 153.144V152.184H172.676V153.144C172.676 153.933 172.58 154.632 172.388 155.24C172.196 155.837 171.866 156.307 171.396 156.648C170.927 156.979 170.266 157.144 169.412 157.144ZM173.695 157L176.447 144.04H178.191L180.959 157H179.247L178.655 153.736H176.015L175.391 157H173.695ZM176.255 152.44H178.415L177.327 146.6L176.255 152.44ZM182.274 157V144.04H183.506L187.186 152.648V144.04H188.69V157H187.538L183.81 148.152V157H182.274ZM195.807 157V145.384H193.615V144.04H199.743V145.384H197.615V157H195.807ZM200.992 157V144.04H202.8V149.64H206.128V144.04H207.936V157H206.128V150.936H202.8V157H200.992ZM209.961 157V144.04H214.985V145.384H211.769V149.672H214.377V150.952H211.769V155.704H215.017V157H209.961ZM220.133 157V144.04H221.941V149.64H225.269V144.04H227.077V157H225.269V150.936H221.941V157H220.133ZM232.414 157.144C231.539 157.144 230.84 156.973 230.318 156.632C229.795 156.291 229.422 155.805 229.198 155.176C228.974 154.536 228.862 153.789 228.862 152.936V148.024C228.862 147.171 228.974 146.44 229.198 145.832C229.432 145.213 229.806 144.744 230.318 144.424C230.84 144.093 231.539 143.928 232.414 143.928C233.288 143.928 233.982 144.093 234.494 144.424C235.006 144.755 235.374 145.224 235.598 145.832C235.832 146.44 235.95 147.171 235.95 148.024V152.952C235.95 153.795 235.832 154.531 235.598 155.16C235.374 155.789 235.006 156.28 234.494 156.632C233.982 156.973 233.288 157.144 232.414 157.144ZM232.414 155.72C232.894 155.72 233.256 155.624 233.502 155.432C233.747 155.229 233.912 154.952 233.998 154.6C234.083 154.237 234.126 153.816 234.126 153.336V147.656C234.126 147.176 234.083 146.765 233.998 146.424C233.912 146.072 233.747 145.805 233.502 145.624C233.256 145.432 232.894 145.336 232.414 145.336C231.934 145.336 231.566 145.432 231.31 145.624C231.064 145.805 230.899 146.072 230.814 146.424C230.728 146.765 230.686 147.176 230.686 147.656V153.336C230.686 153.816 230.728 154.237 230.814 154.6C230.899 154.952 231.064 155.229 231.31 155.432C231.566 155.624 231.934 155.72 232.414 155.72ZM240.783 157.144C240.036 157.144 239.412 156.984 238.911 156.664C238.42 156.344 238.047 155.901 237.791 155.336C237.535 154.771 237.385 154.115 237.343 153.368L238.943 152.936C238.975 153.395 239.044 153.837 239.151 154.264C239.268 154.691 239.455 155.043 239.711 155.32C239.967 155.587 240.324 155.72 240.783 155.72C241.252 155.72 241.604 155.592 241.839 155.336C242.084 155.069 242.207 154.691 242.207 154.2C242.207 153.613 242.073 153.144 241.807 152.792C241.54 152.429 241.204 152.067 240.799 151.704L238.623 149.784C238.196 149.411 237.881 149.005 237.679 148.568C237.476 148.12 237.375 147.571 237.375 146.92C237.375 145.971 237.647 145.235 238.191 144.712C238.735 144.189 239.476 143.928 240.415 143.928C240.927 143.928 241.375 143.997 241.759 144.136C242.153 144.264 242.479 144.467 242.735 144.744C243.001 145.021 243.209 145.373 243.359 145.8C243.519 146.216 243.625 146.707 243.679 147.272L242.143 147.688C242.111 147.261 242.047 146.872 241.951 146.52C241.855 146.157 241.684 145.869 241.439 145.656C241.204 145.432 240.863 145.32 240.415 145.32C239.967 145.32 239.615 145.443 239.359 145.688C239.113 145.923 238.991 146.275 238.991 146.744C238.991 147.139 239.055 147.464 239.183 147.72C239.321 147.976 239.54 148.237 239.839 148.504L242.031 150.424C242.521 150.851 242.953 151.363 243.327 151.96C243.7 152.547 243.887 153.245 243.887 154.056C243.887 154.696 243.753 155.251 243.487 155.72C243.22 156.179 242.852 156.531 242.383 156.776C241.924 157.021 241.391 157.144 240.783 157.144ZM246.713 157V145.384H244.521V144.04H250.649V145.384H248.521V157H246.713ZM251.995 157V144.04H253.771V157H251.995ZM255.867 157V144.04H257.099L260.779 152.648V144.04H262.283V157H261.131L257.403 148.152V157H255.867ZM267.409 157.16C266.598 157.16 265.947 156.989 265.457 156.648C264.977 156.296 264.625 155.789 264.401 155.128C264.187 154.467 264.081 153.672 264.081 152.744V148.408C264.081 147.459 264.177 146.653 264.368 145.992C264.571 145.32 264.923 144.808 265.424 144.456C265.937 144.104 266.646 143.928 267.553 143.928C268.363 143.928 269.014 144.067 269.505 144.344C270.006 144.611 270.369 145.027 270.593 145.592C270.817 146.147 270.929 146.851 270.929 147.704V148.184H269.233V147.784C269.233 147.219 269.195 146.76 269.121 146.408C269.046 146.045 268.891 145.779 268.657 145.608C268.433 145.427 268.075 145.336 267.585 145.336C267.051 145.336 266.662 145.459 266.417 145.704C266.182 145.949 266.033 146.285 265.969 146.712C265.915 147.128 265.889 147.603 265.889 148.136V152.936C265.889 153.555 265.931 154.072 266.017 154.488C266.113 154.904 266.289 155.213 266.545 155.416C266.801 155.619 267.163 155.72 267.633 155.72C268.102 155.72 268.465 155.608 268.721 155.384C268.977 155.16 269.153 154.829 269.249 154.392C269.345 153.955 269.393 153.411 269.393 152.76V151.864H267.745V150.584H271.025V157H269.889L269.713 155.512C269.542 155.992 269.275 156.387 268.913 156.696C268.55 157.005 268.049 157.16 267.409 157.16ZM276.539 157V144.04H278.347V149.64H281.675V144.04H283.483V157H281.675V150.936H278.347V157H276.539ZM284.804 157L287.556 144.04H289.3L292.068 157H290.356L289.764 153.736H287.124L286.5 157H284.804ZM287.364 152.44H289.524L288.436 146.6L287.364 152.44ZM293.383 157V144.04H294.615L298.295 152.648V144.04H299.799V157H298.647L294.919 148.152V157H293.383ZM301.836 157V144.04H304.652C305.612 144.04 306.369 144.189 306.924 144.488C307.489 144.776 307.889 145.213 308.124 145.8C308.369 146.387 308.492 147.117 308.492 147.992V152.76C308.492 153.677 308.369 154.451 308.124 155.08C307.889 155.709 307.5 156.189 306.956 156.52C306.423 156.84 305.703 157 304.796 157H301.836ZM303.644 155.704H304.668C305.329 155.704 305.799 155.576 306.076 155.32C306.353 155.064 306.519 154.691 306.572 154.2C306.636 153.709 306.668 153.117 306.668 152.424V148.216C306.668 147.544 306.625 147 306.54 146.584C306.455 146.168 306.268 145.864 305.98 145.672C305.692 145.48 305.239 145.384 304.62 145.384H303.644V155.704ZM310.274 157V144.04H312.082V155.704H315.394V157H310.274ZM316.633 157V144.04H321.657V145.384H318.441V149.672H321.049V150.952H318.441V155.704H321.689V157H316.633ZM324.733 153.752V151.768C325.266 151.299 325.746 150.829 326.173 150.36C326.61 149.891 326.957 149.395 327.213 148.872C327.469 148.349 327.597 147.779 327.597 147.16C327.597 146.659 327.463 146.243 327.197 145.912C326.941 145.581 326.562 145.416 326.061 145.416C325.634 145.416 325.293 145.539 325.037 145.784C324.791 146.029 324.669 146.344 324.669 146.728C324.669 146.867 324.679 147 324.701 147.128C324.722 147.245 324.749 147.379 324.781 147.528L323.181 147.832C323.127 147.672 323.085 147.507 323.053 147.336C323.021 147.155 323.005 146.984 323.005 146.824C323.005 145.971 323.271 145.277 323.805 144.744C324.338 144.2 325.09 143.928 326.061 143.928C327.074 143.928 327.863 144.216 328.429 144.792C328.994 145.357 329.277 146.163 329.277 147.208C329.277 147.923 329.143 148.568 328.877 149.144C328.61 149.72 328.247 150.253 327.789 150.744C327.33 151.235 326.818 151.72 326.253 152.2V153.752H324.733ZM324.653 157V155.24H326.365V157H324.653Z" fill="black"/>
</g>
<g clip-path="url(#clip1_4_559)">
<path d="M1 194H499V283H1V194Z" fill="white"/>
<path d="M446 238H464V240H446V238Z" fill="#0057FF"/>
<path d="M454 230H456V248H454V230Z" fill="#0057FF"/>
<path d="M42.008 246V233.04H44.824C45.784 233.04 46.5413 233.189 47.096 233.488C47.6613 233.776 48.0613 234.213 48.296 234.8C48.5413 235.387 48.664 236.117 48.664 236.992V241.76C48.664 242.677 48.5413 243.451 48.296 244.08C48.0613 244.709 47.672 245.189 47.128 245.52C46.5947 245.84 45.8747 246 44.968 246H42.008ZM43.816 244.704H44.84C45.5013 244.704 45.9707 244.576 46.248 244.32C46.5253 244.064 46.6907 243.691 46.744 243.2C46.808 242.709 46.84 242.117 46.84 241.424V237.216C46.84 236.544 46.7973 236 46.712 235.584C46.6267 235.168 46.44 234.864 46.152 234.672C45.864 234.48 45.4107 234.384 44.792 234.384H43.816V244.704ZM53.7575 246.144C52.8828 246.144 52.1842 245.973 51.6615 245.632C51.1388 245.291 50.7655 244.805 50.5415 244.176C50.3175 243.536 50.2055 242.789 50.2055 241.936V237.024C50.2055 236.171 50.3175 235.44 50.5415 234.832C50.7762 234.213 51.1495 233.744 51.6615 233.424C52.1842 233.093 52.8828 232.928 53.7575 232.928C54.6322 232.928 55.3255 233.093 55.8375 233.424C56.3495 233.755 56.7175 234.224 56.9415 234.832C57.1762 235.44 57.2935 236.171 57.2935 237.024V241.952C57.2935 242.795 57.1762 243.531 56.9415 244.16C56.7175 244.789 56.3495 245.28 55.8375 245.632C55.3255 245.973 54.6322 246.144 53.7575 246.144ZM53.7575 244.72C54.2375 244.72 54.6002 244.624 54.8455 244.432C55.0908 244.229 55.2562 243.952 55.3415 243.6C55.4268 243.237 55.4695 242.816 55.4695 242.336V236.656C55.4695 236.176 55.4268 235.765 55.3415 235.424C55.2562 235.072 55.0908 234.805 54.8455 234.624C54.6002 234.432 54.2375 234.336 53.7575 234.336C53.2775 234.336 52.9095 234.432 52.6535 234.624C52.4082 234.805 52.2428 235.072 52.1575 235.424C52.0722 235.765 52.0295 236.176 52.0295 236.656V242.336C52.0295 242.816 52.0722 243.237 52.1575 243.6C52.2428 243.952 52.4082 244.229 52.6535 244.432C52.9095 244.624 53.2775 244.72 53.7575 244.72ZM64.7108 246V241.424L61.9108 233.04H63.5908L65.5748 239.296L67.5268 233.04H69.2228L66.4388 241.424V246H64.7108ZM73.7419 246.144C72.8672 246.144 72.1685 245.973 71.6459 245.632C71.1232 245.291 70.7499 244.805 70.5259 244.176C70.3019 243.536 70.1899 242.789 70.1899 241.936V237.024C70.1899 236.171 70.3019 235.44 70.5259 234.832C70.7605 234.213 71.1339 233.744 71.6459 233.424C72.1685 233.093 72.8672 232.928 73.7419 232.928C74.6165 232.928 75.3099 233.093 75.8219 233.424C76.3339 233.755 76.7019 234.224 76.9259 234.832C77.1605 235.44 77.2779 236.171 77.2779 237.024V241.952C77.2779 242.795 77.1605 243.531 76.9259 244.16C76.7019 244.789 76.3339 245.28 75.8219 245.632C75.3099 245.973 74.6165 246.144 73.7419 246.144ZM73.7419 244.72C74.2219 244.72 74.5845 244.624 74.8299 244.432C75.0752 244.229 75.2405 243.952 75.3259 243.6C75.4112 243.237 75.4539 242.816 75.4539 242.336V236.656C75.4539 236.176 75.4112 235.765 75.3259 235.424C75.2405 235.072 75.0752 234.805 74.8299 234.624C74.5845 234.432 74.2219 234.336 73.7419 234.336C73.2619 234.336 72.8939 234.432 72.6379 234.624C72.3925 234.805 72.2272 235.072 72.1419 235.424C72.0565 235.765 72.0139 236.176 72.0139 236.656V242.336C72.0139 242.816 72.0565 243.237 72.1419 243.6C72.2272 243.952 72.3925 244.229 72.6379 244.432C72.8939 244.624 73.2619 244.72 73.7419 244.72ZM82.3989 246.144C81.4602 246.144 80.7402 245.957 80.2389 245.584C79.7375 245.211 79.3962 244.688 79.2149 244.016C79.0335 243.333 78.9429 242.539 78.9429 241.632V233.04H80.6709V241.712C80.6709 242.267 80.7082 242.773 80.7829 243.232C80.8575 243.691 81.0175 244.053 81.2629 244.32C81.5189 244.587 81.8975 244.72 82.3989 244.72C82.9109 244.72 83.2895 244.587 83.5349 244.32C83.7802 244.053 83.9402 243.691 84.0149 243.232C84.0895 242.773 84.1269 242.267 84.1269 241.712V233.04H85.8389V241.632C85.8389 242.539 85.7482 243.333 85.5669 244.016C85.3855 244.688 85.0442 245.211 84.5429 245.584C84.0522 245.957 83.3375 246.144 82.3989 246.144ZM91.3986 246V233.04H93.2066V238.64H96.5346V233.04H98.3426V246H96.5346V239.936H93.2066V246H91.3986ZM99.6634 246L102.415 233.04H104.159L106.927 246H105.215L104.623 242.736H101.983L101.359 246H99.6634ZM102.223 241.44H104.383L103.295 235.6L102.223 241.44ZM110.045 246L107.149 233.04H108.845L110.893 242.592L112.845 233.04H114.493L111.629 246H110.045ZM115.867 246V233.04H120.891V234.384H117.675V238.672H120.283V239.952H117.675V244.704H120.923V246H115.867ZM125.335 246L128.087 233.04H129.831L132.599 246H130.887L130.295 242.736H127.655L127.031 246H125.335ZM127.895 241.44H130.055L128.967 235.6L127.895 241.44ZM133.914 246V233.04H135.146L138.826 241.648V233.04H140.33V246H139.178L135.45 237.152V246H133.914ZM144.351 246V241.424L141.551 233.04H143.231L145.215 239.296L147.167 233.04H148.863L146.079 241.424V246H144.351ZM159.679 248.624C159.391 248.475 159.103 248.261 158.815 247.984C158.537 247.707 158.271 247.403 158.015 247.072C157.769 246.741 157.545 246.427 157.343 246.128C157.3 246.139 157.252 246.144 157.199 246.144C157.145 246.144 157.092 246.144 157.039 246.144C156.164 246.144 155.465 245.973 154.943 245.632C154.42 245.291 154.047 244.805 153.823 244.176C153.599 243.536 153.487 242.789 153.487 241.936V237.024C153.487 236.171 153.599 235.44 153.823 234.832C154.057 234.213 154.431 233.744 154.943 233.424C155.465 233.093 156.164 232.928 157.039 232.928C157.913 232.928 158.607 233.093 159.119 233.424C159.641 233.755 160.015 234.224 160.239 234.832C160.473 235.44 160.591 236.171 160.591 237.024V241.952C160.591 242.581 160.527 243.157 160.399 243.68C160.271 244.192 160.068 244.635 159.791 245.008C159.513 245.371 159.145 245.648 158.687 245.84C158.815 246 158.953 246.165 159.103 246.336C159.252 246.517 159.401 246.683 159.551 246.832C159.7 246.981 159.839 247.104 159.967 247.2L159.679 248.624ZM157.039 244.72C157.529 244.72 157.897 244.624 158.143 244.432C158.388 244.229 158.553 243.952 158.639 243.6C158.724 243.237 158.767 242.816 158.767 242.336V236.656C158.767 236.176 158.724 235.765 158.639 235.424C158.553 235.072 158.388 234.805 158.143 234.624C157.897 234.432 157.529 234.336 157.039 234.336C156.559 234.336 156.191 234.432 155.935 234.624C155.689 234.805 155.524 235.072 155.439 235.424C155.353 235.765 155.311 236.176 155.311 236.656V242.336C155.311 242.816 155.353 243.237 155.439 243.6C155.524 243.952 155.689 244.229 155.935 244.432C156.191 244.624 156.559 244.72 157.039 244.72ZM165.727 246.144C164.788 246.144 164.068 245.957 163.567 245.584C163.066 245.211 162.724 244.688 162.543 244.016C162.362 243.333 162.271 242.539 162.271 241.632V233.04H163.999V241.712C163.999 242.267 164.036 242.773 164.111 243.232C164.186 243.691 164.346 244.053 164.591 244.32C164.847 244.587 165.226 244.72 165.727 244.72C166.239 244.72 166.618 244.587 166.863 244.32C167.108 244.053 167.268 243.691 167.343 243.232C167.418 242.773 167.455 242.267 167.455 241.712V233.04H169.167V241.632C169.167 242.539 169.076 243.333 168.895 244.016C168.714 244.688 168.372 245.211 167.871 245.584C167.38 245.957 166.666 246.144 165.727 246.144ZM171.071 246V233.04H176.095V234.384H172.879V238.672H175.487V239.952H172.879V244.704H176.127V246H171.071ZM180.642 246.144C179.895 246.144 179.271 245.984 178.77 245.664C178.279 245.344 177.906 244.901 177.65 244.336C177.394 243.771 177.245 243.115 177.202 242.368L178.802 241.936C178.834 242.395 178.903 242.837 179.01 243.264C179.127 243.691 179.314 244.043 179.57 244.32C179.826 244.587 180.183 244.72 180.642 244.72C181.111 244.72 181.463 244.592 181.698 244.336C181.943 244.069 182.066 243.691 182.066 243.2C182.066 242.613 181.933 242.144 181.666 241.792C181.399 241.429 181.063 241.067 180.658 240.704L178.482 238.784C178.055 238.411 177.741 238.005 177.538 237.568C177.335 237.12 177.234 236.571 177.234 235.92C177.234 234.971 177.506 234.235 178.05 233.712C178.594 233.189 179.335 232.928 180.274 232.928C180.786 232.928 181.234 232.997 181.618 233.136C182.013 233.264 182.338 233.467 182.594 233.744C182.861 234.021 183.069 234.373 183.218 234.8C183.378 235.216 183.485 235.707 183.538 236.272L182.002 236.688C181.97 236.261 181.906 235.872 181.81 235.52C181.714 235.157 181.543 234.869 181.298 234.656C181.063 234.432 180.722 234.32 180.274 234.32C179.826 234.32 179.474 234.443 179.218 234.688C178.973 234.923 178.85 235.275 178.85 235.744C178.85 236.139 178.914 236.464 179.042 236.72C179.181 236.976 179.399 237.237 179.698 237.504L181.89 239.424C182.381 239.851 182.813 240.363 183.186 240.96C183.559 241.547 183.746 242.245 183.746 243.056C183.746 243.696 183.613 244.251 183.346 244.72C183.079 245.179 182.711 245.531 182.242 245.776C181.783 246.021 181.25 246.144 180.642 246.144ZM186.573 246V234.384H184.381V233.04H190.509V234.384H188.381V246H186.573ZM191.854 246V233.04H193.63V246H191.854ZM199.039 246.144C198.164 246.144 197.465 245.973 196.943 245.632C196.42 245.291 196.047 244.805 195.823 244.176C195.599 243.536 195.487 242.789 195.487 241.936V237.024C195.487 236.171 195.599 235.44 195.823 234.832C196.057 234.213 196.431 233.744 196.943 233.424C197.465 233.093 198.164 232.928 199.039 232.928C199.913 232.928 200.607 233.093 201.119 233.424C201.631 233.755 201.999 234.224 202.223 234.832C202.457 235.44 202.575 236.171 202.575 237.024V241.952C202.575 242.795 202.457 243.531 202.223 244.16C201.999 244.789 201.631 245.28 201.119 245.632C200.607 245.973 199.913 246.144 199.039 246.144ZM199.039 244.72C199.519 244.72 199.881 244.624 200.127 244.432C200.372 244.229 200.537 243.952 200.623 243.6C200.708 243.237 200.751 242.816 200.751 242.336V236.656C200.751 236.176 200.708 235.765 200.623 235.424C200.537 235.072 200.372 234.805 200.127 234.624C199.881 234.432 199.519 234.336 199.039 234.336C198.559 234.336 198.191 234.432 197.935 234.624C197.689 234.805 197.524 235.072 197.439 235.424C197.353 235.765 197.311 236.176 197.311 236.656V242.336C197.311 242.816 197.353 243.237 197.439 243.6C197.524 243.952 197.689 244.229 197.935 244.432C198.191 244.624 198.559 244.72 199.039 244.72ZM204.352 246V233.04H205.584L209.264 241.648V233.04H210.768V246H209.616L205.888 237.152V246H204.352ZM215.861 246.144C215.114 246.144 214.49 245.984 213.989 245.664C213.498 245.344 213.125 244.901 212.869 244.336C212.613 243.771 212.464 243.115 212.421 242.368L214.021 241.936C214.053 242.395 214.122 242.837 214.229 243.264C214.346 243.691 214.533 244.043 214.789 244.32C215.045 244.587 215.402 244.72 215.861 244.72C216.33 244.72 216.682 244.592 216.917 244.336C217.162 244.069 217.285 243.691 217.285 243.2C217.285 242.613 217.152 242.144 216.885 241.792C216.618 241.429 216.282 241.067 215.877 240.704L213.701 238.784C213.274 238.411 212.96 238.005 212.757 237.568C212.554 237.12 212.453 236.571 212.453 235.92C212.453 234.971 212.725 234.235 213.269 233.712C213.813 233.189 214.554 232.928 215.493 232.928C216.005 232.928 216.453 232.997 216.837 233.136C217.232 233.264 217.557 233.467 217.813 233.744C218.08 234.021 218.288 234.373 218.437 234.8C218.597 235.216 218.704 235.707 218.757 236.272L217.221 236.688C217.189 236.261 217.125 235.872 217.029 235.52C216.933 235.157 216.762 234.869 216.517 234.656C216.282 234.432 215.941 234.32 215.493 234.32C215.045 234.32 214.693 234.443 214.437 234.688C214.192 234.923 214.069 235.275 214.069 235.744C214.069 236.139 214.133 236.464 214.261 236.72C214.4 236.976 214.618 237.237 214.917 237.504L217.109 239.424C217.6 239.851 218.032 240.363 218.405 240.96C218.778 241.547 218.965 242.245 218.965 243.056C218.965 243.696 218.832 244.251 218.565 244.72C218.298 245.179 217.93 245.531 217.461 245.776C217.002 246.021 216.469 246.144 215.861 246.144ZM224.024 246V233.04H229.032V234.336H225.832V238.656H228.312V239.936H225.832V246H224.024ZM233.586 246.144C232.711 246.144 232.012 245.973 231.49 245.632C230.967 245.291 230.594 244.805 230.37 244.176C230.146 243.536 230.034 242.789 230.034 241.936V237.024C230.034 236.171 230.146 235.44 230.37 234.832C230.604 234.213 230.978 233.744 231.49 233.424C232.012 233.093 232.711 232.928 233.586 232.928C234.46 232.928 235.154 233.093 235.666 233.424C236.178 233.755 236.546 234.224 236.77 234.832C237.004 235.44 237.122 236.171 237.122 237.024V241.952C237.122 242.795 237.004 243.531 236.77 244.16C236.546 244.789 236.178 245.28 235.666 245.632C235.154 245.973 234.46 246.144 233.586 246.144ZM233.586 244.72C234.066 244.72 234.428 244.624 234.674 244.432C234.919 244.229 235.084 243.952 235.17 243.6C235.255 243.237 235.298 242.816 235.298 242.336V236.656C235.298 236.176 235.255 235.765 235.17 235.424C235.084 235.072 234.919 234.805 234.674 234.624C234.428 234.432 234.066 234.336 233.586 234.336C233.106 234.336 232.738 234.432 232.482 234.624C232.236 234.805 232.071 235.072 231.986 235.424C231.9 235.765 231.858 236.176 231.858 236.656V242.336C231.858 242.816 231.9 243.237 231.986 243.6C232.071 243.952 232.236 244.229 232.482 244.432C232.738 244.624 233.106 244.72 233.586 244.72ZM238.899 246V233.04H241.507C242.371 233.04 243.085 233.157 243.651 233.392C244.216 233.616 244.632 233.984 244.899 234.496C245.176 234.997 245.315 235.659 245.315 236.48C245.315 236.981 245.261 237.44 245.155 237.856C245.048 238.261 244.877 238.608 244.643 238.896C244.408 239.173 244.099 239.376 243.715 239.504L245.555 246H243.811L242.115 239.92H240.707V246H238.899ZM240.707 238.624H241.395C241.907 238.624 242.323 238.56 242.643 238.432C242.963 238.304 243.197 238.085 243.347 237.776C243.496 237.467 243.571 237.035 243.571 236.48C243.571 235.723 243.432 235.179 243.155 234.848C242.877 234.507 242.328 234.336 241.507 234.336H240.707V238.624ZM254.196 246.144C253.257 246.144 252.537 245.957 252.036 245.584C251.534 245.211 251.193 244.688 251.012 244.016C250.83 243.333 250.74 242.539 250.74 241.632V233.04H252.468V241.712C252.468 242.267 252.505 242.773 252.58 243.232C252.654 243.691 252.814 244.053 253.06 244.32C253.316 244.587 253.694 244.72 254.196 244.72C254.708 244.72 255.086 244.587 255.332 244.32C255.577 244.053 255.737 243.691 255.812 243.232C255.886 242.773 255.924 242.267 255.924 241.712V233.04H257.636V241.632C257.636 242.539 257.545 243.333 257.364 244.016C257.182 244.688 256.841 245.211 256.34 245.584C255.849 245.957 255.134 246.144 254.196 246.144ZM262.595 246.144C261.849 246.144 261.225 245.984 260.723 245.664C260.233 245.344 259.859 244.901 259.603 244.336C259.347 243.771 259.198 243.115 259.155 242.368L260.755 241.936C260.787 242.395 260.857 242.837 260.963 243.264C261.081 243.691 261.267 244.043 261.523 244.32C261.779 244.587 262.137 244.72 262.595 244.72C263.065 244.72 263.417 244.592 263.651 244.336C263.897 244.069 264.019 243.691 264.019 243.2C264.019 242.613 263.886 242.144 263.619 241.792C263.353 241.429 263.017 241.067 262.611 240.704L260.435 238.784C260.009 238.411 259.694 238.005 259.491 237.568C259.289 237.12 259.187 236.571 259.187 235.92C259.187 234.971 259.459 234.235 260.003 233.712C260.547 233.189 261.289 232.928 262.227 232.928C262.739 232.928 263.187 232.997 263.571 233.136C263.966 233.264 264.291 233.467 264.547 233.744C264.814 234.021 265.022 234.373 265.171 234.8C265.331 235.216 265.438 235.707 265.491 236.272L263.955 236.688C263.923 236.261 263.859 235.872 263.763 235.52C263.667 235.157 263.497 234.869 263.251 234.656C263.017 234.432 262.675 234.32 262.227 234.32C261.779 234.32 261.427 234.443 261.171 234.688C260.926 234.923 260.803 235.275 260.803 235.744C260.803 236.139 260.867 236.464 260.995 236.72C261.134 236.976 261.353 237.237 261.651 237.504L263.843 239.424C264.334 239.851 264.766 240.363 265.139 240.96C265.513 241.547 265.699 242.245 265.699 243.056C265.699 243.696 265.566 244.251 265.299 244.72C265.033 245.179 264.665 245.531 264.195 245.776C263.737 246.021 263.203 246.144 262.595 246.144ZM268.686 242.752V240.768C269.219 240.299 269.699 239.829 270.126 239.36C270.563 238.891 270.91 238.395 271.166 237.872C271.422 237.349 271.55 236.779 271.55 236.16C271.55 235.659 271.416 235.243 271.15 234.912C270.894 234.581 270.515 234.416 270.014 234.416C269.587 234.416 269.246 234.539 268.99 234.784C268.744 235.029 268.622 235.344 268.622 235.728C268.622 235.867 268.632 236 268.654 236.128C268.675 236.245 268.702 236.379 268.734 236.528L267.134 236.832C267.08 236.672 267.038 236.507 267.006 236.336C266.974 236.155 266.958 235.984 266.958 235.824C266.958 234.971 267.224 234.277 267.758 233.744C268.291 233.2 269.043 232.928 270.014 232.928C271.027 232.928 271.816 233.216 272.382 233.792C272.947 234.357 273.23 235.163 273.23 236.208C273.23 236.923 273.096 237.568 272.83 238.144C272.563 238.72 272.2 239.253 271.742 239.744C271.283 240.235 270.771 240.72 270.206 241.2V242.752H268.686ZM268.606 246V244.24H270.318V246H268.606Z" fill="black"/>
</g>
<g clip-path="url(#clip2_4_559)">
<path d="M1 283H499V371H1V283Z" fill="white"/>
<path d="M454 319H456V337H454V319Z" fill="#0057FF"/>
<path d="M446 327H464V329H446V327Z" fill="#0057FF"/>
<path d="M43.688 335L41.576 322.04H43.08L44.472 331.352L46.216 322.088H47.496L49.256 331.4L50.616 322.04H52.088L50.008 335H48.696L46.888 325.4L45.064 335H43.688ZM53.6643 335V322.04H55.4723V327.64H58.8003V322.04H60.6083V335H58.8003V328.936H55.4723V335H53.6643ZM61.929 335L64.681 322.04H66.425L69.193 335H67.481L66.889 331.736H64.249L63.625 335H61.929ZM64.489 330.44H66.649L65.561 324.6L64.489 330.44ZM71.4164 335V323.384H69.2244V322.04H75.3524V323.384H73.2244V335H71.4164ZM80.354 335V322.04H82.13V335H80.354ZM87.2828 335.144C86.5361 335.144 85.9121 334.984 85.4108 334.664C84.9201 334.344 84.5468 333.901 84.2908 333.336C84.0348 332.771 83.8854 332.115 83.8428 331.368L85.4428 330.936C85.4748 331.395 85.5441 331.837 85.6508 332.264C85.7681 332.691 85.9548 333.043 86.2108 333.32C86.4668 333.587 86.8241 333.72 87.2828 333.72C87.7521 333.72 88.1041 333.592 88.3388 333.336C88.5841 333.069 88.7068 332.691 88.7068 332.2C88.7068 331.613 88.5734 331.144 88.3068 330.792C88.0401 330.429 87.7041 330.067 87.2988 329.704L85.1228 327.784C84.6961 327.411 84.3814 327.005 84.1788 326.568C83.9761 326.12 83.8748 325.571 83.8748 324.92C83.8748 323.971 84.1468 323.235 84.6908 322.712C85.2348 322.189 85.9761 321.928 86.9148 321.928C87.4268 321.928 87.8748 321.997 88.2588 322.136C88.6534 322.264 88.9788 322.467 89.2348 322.744C89.5014 323.021 89.7094 323.373 89.8588 323.8C90.0188 324.216 90.1254 324.707 90.1788 325.272L88.6428 325.688C88.6108 325.261 88.5468 324.872 88.4508 324.52C88.3548 324.157 88.1841 323.869 87.9388 323.656C87.7041 323.432 87.3628 323.32 86.9148 323.32C86.4668 323.32 86.1148 323.443 85.8588 323.688C85.6134 323.923 85.4908 324.275 85.4908 324.744C85.4908 325.139 85.5548 325.464 85.6828 325.72C85.8214 325.976 86.0401 326.237 86.3388 326.504L88.5308 328.424C89.0214 328.851 89.4534 329.363 89.8268 329.96C90.2001 330.547 90.3868 331.245 90.3868 332.056C90.3868 332.696 90.2534 333.251 89.9868 333.72C89.7201 334.179 89.3521 334.531 88.8828 334.776C88.4241 335.021 87.8908 335.144 87.2828 335.144ZM97.4295 335V330.424L94.6295 322.04H96.3095L98.2935 328.296L100.246 322.04H101.942L99.1575 330.424V335H97.4295ZM106.461 335.144C105.586 335.144 104.887 334.973 104.365 334.632C103.842 334.291 103.469 333.805 103.245 333.176C103.021 332.536 102.909 331.789 102.909 330.936V326.024C102.909 325.171 103.021 324.44 103.245 323.832C103.479 323.213 103.853 322.744 104.365 322.424C104.887 322.093 105.586 321.928 106.461 321.928C107.335 321.928 108.029 322.093 108.541 322.424C109.053 322.755 109.421 323.224 109.645 323.832C109.879 324.44 109.997 325.171 109.997 326.024V330.952C109.997 331.795 109.879 332.531 109.645 333.16C109.421 333.789 109.053 334.28 108.541 334.632C108.029 334.973 107.335 335.144 106.461 335.144ZM106.461 333.72C106.941 333.72 107.303 333.624 107.549 333.432C107.794 333.229 107.959 332.952 108.045 332.6C108.13 332.237 108.173 331.816 108.173 331.336V325.656C108.173 325.176 108.13 324.765 108.045 324.424C107.959 324.072 107.794 323.805 107.549 323.624C107.303 323.432 106.941 323.336 106.461 323.336C105.981 323.336 105.613 323.432 105.357 323.624C105.111 323.805 104.946 324.072 104.861 324.424C104.775 324.765 104.733 325.176 104.733 325.656V331.336C104.733 331.816 104.775 332.237 104.861 332.6C104.946 332.952 105.111 333.229 105.357 333.432C105.613 333.624 105.981 333.72 106.461 333.72ZM115.118 335.144C114.179 335.144 113.459 334.957 112.958 334.584C112.456 334.211 112.115 333.688 111.934 333.016C111.752 332.333 111.662 331.539 111.662 330.632V322.04H113.39V330.712C113.39 331.267 113.427 331.773 113.502 332.232C113.576 332.691 113.736 333.053 113.982 333.32C114.238 333.587 114.616 333.72 115.118 333.72C115.63 333.72 116.008 333.587 116.254 333.32C116.499 333.053 116.659 332.691 116.734 332.232C116.808 331.773 116.846 331.267 116.846 330.712V322.04H118.558V330.632C118.558 331.539 118.467 332.333 118.286 333.016C118.104 333.688 117.763 334.211 117.262 334.584C116.771 334.957 116.056 335.144 115.118 335.144ZM120.461 335V322.04H123.069C123.933 322.04 124.648 322.157 125.213 322.392C125.778 322.616 126.194 322.984 126.461 323.496C126.738 323.997 126.877 324.659 126.877 325.48C126.877 325.981 126.824 326.44 126.717 326.856C126.61 327.261 126.44 327.608 126.205 327.896C125.97 328.173 125.661 328.376 125.277 328.504L127.117 335H125.373L123.677 328.92H122.269V335H120.461ZM122.269 327.624H122.957C123.469 327.624 123.885 327.56 124.205 327.432C124.525 327.304 124.76 327.085 124.909 326.776C125.058 326.467 125.133 326.035 125.133 325.48C125.133 324.723 124.994 324.179 124.717 323.848C124.44 323.507 123.89 323.336 123.069 323.336H122.269V327.624ZM132.414 335V322.04H135.022C135.886 322.04 136.601 322.157 137.166 322.392C137.732 322.616 138.148 322.984 138.414 323.496C138.692 323.997 138.83 324.659 138.83 325.48C138.83 325.981 138.777 326.44 138.67 326.856C138.564 327.261 138.393 327.608 138.158 327.896C137.924 328.173 137.614 328.376 137.23 328.504L139.07 335H137.326L135.63 328.92H134.222V335H132.414ZM134.222 327.624H134.91C135.422 327.624 135.838 327.56 136.158 327.432C136.478 327.304 136.713 327.085 136.862 326.776C137.012 326.467 137.086 326.035 137.086 325.48C137.086 324.723 136.948 324.179 136.67 323.848C136.393 323.507 135.844 323.336 135.022 323.336H134.222V327.624ZM140.711 335V322.04H145.735V323.384H142.519V327.672H145.127V328.952H142.519V333.704H145.767V335H140.711ZM148.651 335V323.384H146.459V322.04H152.587V323.384H150.459V335H148.651ZM157.18 335.144C156.241 335.144 155.521 334.957 155.02 334.584C154.519 334.211 154.177 333.688 153.996 333.016C153.815 332.333 153.724 331.539 153.724 330.632V322.04H155.452V330.712C155.452 331.267 155.489 331.773 155.564 332.232C155.639 332.691 155.799 333.053 156.044 333.32C156.3 333.587 156.679 333.72 157.18 333.72C157.692 333.72 158.071 333.587 158.316 333.32C158.561 333.053 158.721 332.691 158.796 332.232C158.871 331.773 158.908 331.267 158.908 330.712V322.04H160.62V330.632C160.62 331.539 160.529 332.333 160.348 333.016C160.167 333.688 159.825 334.211 159.324 334.584C158.833 334.957 158.119 335.144 157.18 335.144ZM162.524 335V322.04H165.132C165.996 322.04 166.71 322.157 167.276 322.392C167.841 322.616 168.257 322.984 168.524 323.496C168.801 323.997 168.94 324.659 168.94 325.48C168.94 325.981 168.886 326.44 168.78 326.856C168.673 327.261 168.502 327.608 168.268 327.896C168.033 328.173 167.724 328.376 167.34 328.504L169.18 335H167.436L165.74 328.92H164.332V335H162.524ZM164.332 327.624H165.02C165.532 327.624 165.948 327.56 166.268 327.432C166.588 327.304 166.822 327.085 166.972 326.776C167.121 326.467 167.196 326.035 167.196 325.48C167.196 324.723 167.057 324.179 166.78 323.848C166.502 323.507 165.953 323.336 165.132 323.336H164.332V327.624ZM170.821 335V322.04H172.053L175.733 330.648V322.04H177.237V335H176.085L172.357 326.152V335H170.821ZM182.93 335V322.04H186.146C186.925 322.04 187.543 322.184 188.002 322.472C188.471 322.749 188.813 323.155 189.026 323.688C189.239 324.221 189.346 324.867 189.346 325.624C189.346 326.307 189.223 326.899 188.978 327.4C188.743 327.901 188.391 328.291 187.922 328.568C187.453 328.835 186.866 328.968 186.162 328.968H184.738V335H182.93ZM184.738 327.672H185.57C186.093 327.672 186.503 327.613 186.802 327.496C187.101 327.379 187.314 327.176 187.442 326.888C187.57 326.589 187.634 326.173 187.634 325.64C187.634 325.021 187.586 324.547 187.49 324.216C187.405 323.885 187.218 323.656 186.93 323.528C186.642 323.4 186.194 323.336 185.586 323.336H184.738V327.672ZM193.929 335.144C193.055 335.144 192.356 334.973 191.833 334.632C191.311 334.291 190.937 333.805 190.713 333.176C190.489 332.536 190.377 331.789 190.377 330.936V326.024C190.377 325.171 190.489 324.44 190.713 323.832C190.948 323.213 191.321 322.744 191.833 322.424C192.356 322.093 193.055 321.928 193.929 321.928C194.804 321.928 195.497 322.093 196.009 322.424C196.521 322.755 196.889 323.224 197.113 323.832C197.348 324.44 197.465 325.171 197.465 326.024V330.952C197.465 331.795 197.348 332.531 197.113 333.16C196.889 333.789 196.521 334.28 196.009 334.632C195.497 334.973 194.804 335.144 193.929 335.144ZM193.929 333.72C194.409 333.72 194.772 333.624 195.017 333.432C195.263 333.229 195.428 332.952 195.513 332.6C195.599 332.237 195.641 331.816 195.641 331.336V325.656C195.641 325.176 195.599 324.765 195.513 324.424C195.428 324.072 195.263 323.805 195.017 323.624C194.772 323.432 194.409 323.336 193.929 323.336C193.449 323.336 193.081 323.432 192.825 323.624C192.58 323.805 192.415 324.072 192.329 324.424C192.244 324.765 192.201 325.176 192.201 325.656V331.336C192.201 331.816 192.244 332.237 192.329 332.6C192.415 332.952 192.58 333.229 192.825 333.432C193.081 333.624 193.449 333.72 193.929 333.72ZM199.242 335V322.04H201.05V333.704H204.362V335H199.242ZM205.698 335V322.04H207.474V335H205.698ZM212.819 335.144C211.901 335.144 211.187 334.952 210.674 334.568C210.173 334.184 209.821 333.667 209.618 333.016C209.427 332.365 209.331 331.64 209.331 330.84V326.264C209.331 325.389 209.427 324.627 209.618 323.976C209.821 323.325 210.173 322.824 210.674 322.472C211.187 322.109 211.901 321.928 212.819 321.928C213.629 321.928 214.269 322.077 214.739 322.376C215.219 322.675 215.56 323.101 215.763 323.656C215.976 324.211 216.083 324.877 216.083 325.656V326.68H214.371V325.768C214.371 325.288 214.344 324.867 214.291 324.504C214.248 324.131 214.12 323.843 213.907 323.64C213.693 323.437 213.336 323.336 212.835 323.336C212.323 323.336 211.949 323.448 211.715 323.672C211.48 323.885 211.325 324.195 211.251 324.6C211.187 324.995 211.155 325.459 211.155 325.992V331.128C211.155 331.779 211.208 332.296 211.315 332.68C211.421 333.053 211.597 333.32 211.843 333.48C212.088 333.64 212.419 333.72 212.835 333.72C213.325 333.72 213.677 333.613 213.891 333.4C214.104 333.176 214.237 332.872 214.291 332.488C214.344 332.104 214.371 331.656 214.371 331.144V330.184H216.083V331.144C216.083 331.933 215.987 332.632 215.795 333.24C215.603 333.837 215.272 334.307 214.803 334.648C214.333 334.979 213.672 335.144 212.819 335.144ZM219.789 335V330.424L216.989 322.04H218.669L220.653 328.296L222.605 322.04H224.301L221.517 330.424V335H219.789ZM227.092 331.752V329.768C227.625 329.299 228.105 328.829 228.532 328.36C228.969 327.891 229.316 327.395 229.572 326.872C229.828 326.349 229.956 325.779 229.956 325.16C229.956 324.659 229.823 324.243 229.556 323.912C229.3 323.581 228.921 323.416 228.42 323.416C227.993 323.416 227.652 323.539 227.396 323.784C227.151 324.029 227.028 324.344 227.028 324.728C227.028 324.867 227.039 325 227.06 325.128C227.081 325.245 227.108 325.379 227.14 325.528L225.54 325.832C225.487 325.672 225.444 325.507 225.412 325.336C225.38 325.155 225.364 324.984 225.364 324.824C225.364 323.971 225.631 323.277 226.164 322.744C226.697 322.2 227.449 321.928 228.42 321.928C229.433 321.928 230.223 322.216 230.788 322.792C231.353 323.357 231.636 324.163 231.636 325.208C231.636 325.923 231.503 326.568 231.236 327.144C230.969 327.72 230.607 328.253 230.148 328.744C229.689 329.235 229.177 329.72 228.612 330.2V331.752H227.092ZM227.012 335V333.24H228.724V335H227.012Z" fill="black"/>
</g>
<g clip-path="url(#clip3_4_559)">
<path d="M1 1H499V107H1V1Z" fill="#F5F5F5"/>
<path d="M446 51H464V53H446V51Z" fill="#0057FF"/>
<path d="M454 43H456V61H454V43Z" fill="#0057FF"/>
<path d="M42.008 59V46.04H44.824C45.784 46.04 46.5413 46.1893 47.096 46.488C47.6613 46.776 48.0613 47.2133 48.296 47.8C48.5413 48.3867 48.664 49.1173 48.664 49.992V54.76C48.664 55.6773 48.5413 56.4507 48.296 57.08C48.0613 57.7093 47.672 58.1893 47.128 58.52C46.5947 58.84 45.8747 59 44.968 59H42.008ZM43.816 57.704H44.84C45.5013 57.704 45.9707 57.576 46.248 57.32C46.5253 57.064 46.6907 56.6907 46.744 56.2C46.808 55.7093 46.84 55.1173 46.84 54.424V50.216C46.84 49.544 46.7973 49 46.712 48.584C46.6267 48.168 46.44 47.864 46.152 47.672C45.864 47.48 45.4107 47.384 44.792 47.384H43.816V57.704ZM53.7575 59.144C52.8828 59.144 52.1842 58.9733 51.6615 58.632C51.1388 58.2907 50.7655 57.8053 50.5415 57.176C50.3175 56.536 50.2055 55.7893 50.2055 54.936V50.024C50.2055 49.1707 50.3175 48.44 50.5415 47.832C50.7762 47.2133 51.1495 46.744 51.6615 46.424C52.1842 46.0933 52.8828 45.928 53.7575 45.928C54.6322 45.928 55.3255 46.0933 55.8375 46.424C56.3495 46.7547 56.7175 47.224 56.9415 47.832C57.1762 48.44 57.2935 49.1707 57.2935 50.024V54.952C57.2935 55.7947 57.1762 56.5307 56.9415 57.16C56.7175 57.7893 56.3495 58.28 55.8375 58.632C55.3255 58.9733 54.6322 59.144 53.7575 59.144ZM53.7575 57.72C54.2375 57.72 54.6002 57.624 54.8455 57.432C55.0908 57.2293 55.2562 56.952 55.3415 56.6C55.4268 56.2373 55.4695 55.816 55.4695 55.336V49.656C55.4695 49.176 55.4268 48.7653 55.3415 48.424C55.2562 48.072 55.0908 47.8053 54.8455 47.624C54.6002 47.432 54.2375 47.336 53.7575 47.336C53.2775 47.336 52.9095 47.432 52.6535 47.624C52.4082 47.8053 52.2428 48.072 52.1575 48.424C52.0722 48.7653 52.0295 49.176 52.0295 49.656V55.336C52.0295 55.816 52.0722 56.2373 52.1575 56.6C52.2428 56.952 52.4082 57.2293 52.6535 57.432C52.9095 57.624 53.2775 57.72 53.7575 57.72ZM64.7108 59V54.424L61.9108 46.04H63.5908L65.5748 52.296L67.5268 46.04H69.2228L66.4388 54.424V59H64.7108ZM73.7419 59.144C72.8672 59.144 72.1685 58.9733 71.6459 58.632C71.1232 58.2907 70.7499 57.8053 70.5259 57.176C70.3019 56.536 70.1899 55.7893 70.1899 54.936V50.024C70.1899 49.1707 70.3019 48.44 70.5259 47.832C70.7605 47.2133 71.1339 46.744 71.6459 46.424C72.1685 46.0933 72.8672 45.928 73.7419 45.928C74.6165 45.928 75.3099 46.0933 75.8219 46.424C76.3339 46.7547 76.7019 47.224 76.9259 47.832C77.1605 48.44 77.2779 49.1707 77.2779 50.024V54.952C77.2779 55.7947 77.1605 56.5307 76.9259 57.16C76.7019 57.7893 76.3339 58.28 75.8219 58.632C75.3099 58.9733 74.6165 59.144 73.7419 59.144ZM73.7419 57.72C74.2219 57.72 74.5845 57.624 74.8299 57.432C75.0752 57.2293 75.2405 56.952 75.3259 56.6C75.4112 56.2373 75.4539 55.816 75.4539 55.336V49.656C75.4539 49.176 75.4112 48.7653 75.3259 48.424C75.2405 48.072 75.0752 47.8053 74.8299 47.624C74.5845 47.432 74.2219 47.336 73.7419 47.336C73.2619 47.336 72.8939 47.432 72.6379 47.624C72.3925 47.8053 72.2272 48.072 72.1419 48.424C72.0565 48.7653 72.0139 49.176 72.0139 49.656V55.336C72.0139 55.816 72.0565 56.2373 72.1419 56.6C72.2272 56.952 72.3925 57.2293 72.6379 57.432C72.8939 57.624 73.2619 57.72 73.7419 57.72ZM82.3989 59.144C81.4602 59.144 80.7402 58.9573 80.2389 58.584C79.7375 58.2107 79.3962 57.688 79.2149 57.016C79.0335 56.3333 78.9429 55.5387 78.9429 54.632V46.04H80.6709V54.712C80.6709 55.2667 80.7082 55.7733 80.7829 56.232C80.8575 56.6907 81.0175 57.0533 81.2629 57.32C81.5189 57.5867 81.8975 57.72 82.3989 57.72C82.9109 57.72 83.2895 57.5867 83.5349 57.32C83.7802 57.0533 83.9402 56.6907 84.0149 56.232C84.0895 55.7733 84.1269 55.2667 84.1269 54.712V46.04H85.8389V54.632C85.8389 55.5387 85.7482 56.3333 85.5669 57.016C85.3855 57.688 85.0442 58.2107 84.5429 58.584C84.0522 58.9573 83.3375 59.144 82.3989 59.144ZM91.3986 59V46.04H94.6146C95.3933 46.04 96.012 46.184 96.4706 46.472C96.94 46.7493 97.2813 47.1547 97.4946 47.688C97.708 48.2213 97.8146 48.8667 97.8146 49.624C97.8146 50.3067 97.692 50.8987 97.4466 51.4C97.212 51.9013 96.86 52.2907 96.3906 52.568C95.9213 52.8347 95.3346 52.968 94.6306 52.968H93.2066V59H91.3986ZM93.2066 51.672H94.0386C94.5613 51.672 94.972 51.6133 95.2706 51.496C95.5693 51.3787 95.7826 51.176 95.9106 50.888C96.0386 50.5893 96.1026 50.1733 96.1026 49.64C96.1026 49.0213 96.0546 48.5467 95.9586 48.216C95.8733 47.8853 95.6866 47.656 95.3986 47.528C95.1106 47.4 94.6626 47.336 94.0546 47.336H93.2066V51.672ZM99.0861 59V46.04H101.694C102.558 46.04 103.273 46.1573 103.838 46.392C104.403 46.616 104.819 46.984 105.086 47.496C105.363 47.9973 105.502 48.6587 105.502 49.48C105.502 49.9813 105.449 50.44 105.342 50.856C105.235 51.2613 105.065 51.608 104.83 51.896C104.595 52.1733 104.286 52.376 103.902 52.504L105.742 59H103.998L102.302 52.92H100.894V59H99.0861ZM100.894 51.624H101.582C102.094 51.624 102.51 51.56 102.83 51.432C103.15 51.304 103.385 51.0853 103.534 50.776C103.683 50.4667 103.758 50.0347 103.758 49.48C103.758 48.7227 103.619 48.1787 103.342 47.848C103.065 47.5067 102.515 47.336 101.694 47.336H100.894V51.624ZM110.695 59.144C109.82 59.144 109.122 58.9733 108.599 58.632C108.076 58.2907 107.703 57.8053 107.479 57.176C107.255 56.536 107.143 55.7893 107.143 54.936V50.024C107.143 49.1707 107.255 48.44 107.479 47.832C107.714 47.2133 108.087 46.744 108.599 46.424C109.122 46.0933 109.82 45.928 110.695 45.928C111.57 45.928 112.263 46.0933 112.775 46.424C113.287 46.7547 113.655 47.224 113.879 47.832C114.114 48.44 114.231 49.1707 114.231 50.024V54.952C114.231 55.7947 114.114 56.5307 113.879 57.16C113.655 57.7893 113.287 58.28 112.775 58.632C112.263 58.9733 111.57 59.144 110.695 59.144ZM110.695 57.72C111.175 57.72 111.538 57.624 111.783 57.432C112.028 57.2293 112.194 56.952 112.279 56.6C112.364 56.2373 112.407 55.816 112.407 55.336V49.656C112.407 49.176 112.364 48.7653 112.279 48.424C112.194 48.072 112.028 47.8053 111.783 47.624C111.538 47.432 111.175 47.336 110.695 47.336C110.215 47.336 109.847 47.432 109.591 47.624C109.346 47.8053 109.18 48.072 109.095 48.424C109.01 48.7653 108.967 49.176 108.967 49.656V55.336C108.967 55.816 109.01 56.2373 109.095 56.6C109.18 56.952 109.346 57.2293 109.591 57.432C109.847 57.624 110.215 57.72 110.695 57.72ZM118.264 59L115.368 46.04H117.064L119.112 55.592L121.064 46.04H122.712L119.848 59H118.264ZM124.182 59V46.04H125.958V59H124.182ZM128.055 59V46.04H130.871C131.831 46.04 132.588 46.1893 133.143 46.488C133.708 46.776 134.108 47.2133 134.343 47.8C134.588 48.3867 134.711 49.1173 134.711 49.992V54.76C134.711 55.6773 134.588 56.4507 134.343 57.08C134.108 57.7093 133.719 58.1893 133.175 58.52C132.642 58.84 131.922 59 131.015 59H128.055ZM129.863 57.704H130.887C131.548 57.704 132.018 57.576 132.295 57.32C132.572 57.064 132.738 56.6907 132.791 56.2C132.855 55.7093 132.887 55.1173 132.887 54.424V50.216C132.887 49.544 132.844 49 132.759 48.584C132.674 48.168 132.487 47.864 132.199 47.672C131.911 47.48 131.458 47.384 130.839 47.384H129.863V57.704ZM136.492 59V46.04H141.516V47.384H138.3V51.672H140.908V52.952H138.3V57.704H141.548V59H136.492ZM149.912 59.144C148.995 59.144 148.28 58.952 147.768 58.568C147.267 58.184 146.915 57.6667 146.712 57.016C146.52 56.3653 146.424 55.64 146.424 54.84V50.264C146.424 49.3893 146.52 48.6267 146.712 47.976C146.915 47.3253 147.267 46.824 147.768 46.472C148.28 46.1093 148.995 45.928 149.912 45.928C150.723 45.928 151.363 46.0773 151.832 46.376C152.312 46.6747 152.654 47.1013 152.856 47.656C153.07 48.2107 153.176 48.8773 153.176 49.656V50.68H151.464V49.768C151.464 49.288 151.438 48.8667 151.384 48.504C151.342 48.1307 151.214 47.8427 151 47.64C150.787 47.4373 150.43 47.336 149.928 47.336C149.416 47.336 149.043 47.448 148.808 47.672C148.574 47.8853 148.419 48.1947 148.344 48.6C148.28 48.9947 148.248 49.4587 148.248 49.992V55.128C148.248 55.7787 148.302 56.296 148.408 56.68C148.515 57.0533 148.691 57.32 148.936 57.48C149.182 57.64 149.512 57.72 149.928 57.72C150.419 57.72 150.771 57.6133 150.984 57.4C151.198 57.176 151.331 56.872 151.384 56.488C151.438 56.104 151.464 55.656 151.464 55.144V54.184H153.176V55.144C153.176 55.9333 153.08 56.632 152.888 57.24C152.696 57.8373 152.366 58.3067 151.896 58.648C151.427 58.9787 150.766 59.144 149.912 59.144ZM158.243 59.144C157.304 59.144 156.584 58.9573 156.083 58.584C155.581 58.2107 155.24 57.688 155.059 57.016C154.877 56.3333 154.787 55.5387 154.787 54.632V46.04H156.515V54.712C156.515 55.2667 156.552 55.7733 156.627 56.232C156.701 56.6907 156.861 57.0533 157.107 57.32C157.363 57.5867 157.741 57.72 158.243 57.72C158.755 57.72 159.133 57.5867 159.379 57.32C159.624 57.0533 159.784 56.6907 159.859 56.232C159.933 55.7733 159.971 55.2667 159.971 54.712V46.04H161.683V54.632C161.683 55.5387 161.592 56.3333 161.411 57.016C161.229 57.688 160.888 58.2107 160.387 58.584C159.896 58.9573 159.181 59.144 158.243 59.144ZM166.642 59.144C165.895 59.144 165.271 58.984 164.77 58.664C164.279 58.344 163.906 57.9013 163.65 57.336C163.394 56.7707 163.245 56.1147 163.202 55.368L164.802 54.936C164.834 55.3947 164.903 55.8373 165.01 56.264C165.127 56.6907 165.314 57.0427 165.57 57.32C165.826 57.5867 166.183 57.72 166.642 57.72C167.111 57.72 167.463 57.592 167.698 57.336C167.943 57.0693 168.066 56.6907 168.066 56.2C168.066 55.6133 167.933 55.144 167.666 54.792C167.399 54.4293 167.063 54.0667 166.658 53.704L164.482 51.784C164.055 51.4107 163.741 51.0053 163.538 50.568C163.335 50.12 163.234 49.5707 163.234 48.92C163.234 47.9707 163.506 47.2347 164.05 46.712C164.594 46.1893 165.335 45.928 166.274 45.928C166.786 45.928 167.234 45.9973 167.618 46.136C168.013 46.264 168.338 46.4667 168.594 46.744C168.861 47.0213 169.069 47.3733 169.218 47.8C169.378 48.216 169.485 48.7067 169.538 49.272L168.002 49.688C167.97 49.2613 167.906 48.872 167.81 48.52C167.714 48.1573 167.543 47.8693 167.298 47.656C167.063 47.432 166.722 47.32 166.274 47.32C165.826 47.32 165.474 47.4427 165.218 47.688C164.973 47.9227 164.85 48.2747 164.85 48.744C164.85 49.1387 164.914 49.464 165.042 49.72C165.181 49.976 165.399 50.2373 165.698 50.504L167.89 52.424C168.381 52.8507 168.813 53.3627 169.186 53.96C169.559 54.5467 169.746 55.2453 169.746 56.056C169.746 56.696 169.613 57.2507 169.346 57.72C169.079 58.1787 168.711 58.5307 168.242 58.776C167.783 59.0213 167.25 59.144 166.642 59.144ZM172.573 59V47.384H170.381V46.04H176.509V47.384H174.381V59H172.573ZM181.07 59.144C180.195 59.144 179.497 58.9733 178.974 58.632C178.451 58.2907 178.078 57.8053 177.854 57.176C177.63 56.536 177.518 55.7893 177.518 54.936V50.024C177.518 49.1707 177.63 48.44 177.854 47.832C178.089 47.2133 178.462 46.744 178.974 46.424C179.497 46.0933 180.195 45.928 181.07 45.928C181.945 45.928 182.638 46.0933 183.15 46.424C183.662 46.7547 184.03 47.224 184.254 47.832C184.489 48.44 184.606 49.1707 184.606 50.024V54.952C184.606 55.7947 184.489 56.5307 184.254 57.16C184.03 57.7893 183.662 58.28 183.15 58.632C182.638 58.9733 181.945 59.144 181.07 59.144ZM181.07 57.72C181.55 57.72 181.913 57.624 182.158 57.432C182.403 57.2293 182.569 56.952 182.654 56.6C182.739 56.2373 182.782 55.816 182.782 55.336V49.656C182.782 49.176 182.739 48.7653 182.654 48.424C182.569 48.072 182.403 47.8053 182.158 47.624C181.913 47.432 181.55 47.336 181.07 47.336C180.59 47.336 180.222 47.432 179.966 47.624C179.721 47.8053 179.555 48.072 179.47 48.424C179.385 48.7653 179.342 49.176 179.342 49.656V55.336C179.342 55.816 179.385 56.2373 179.47 56.6C179.555 56.952 179.721 57.2293 179.966 57.432C180.222 57.624 180.59 57.72 181.07 57.72ZM186.351 59L186.591 46.04H188.367L190.655 56.552L192.959 46.04H194.719L194.959 59H193.503L193.359 49.592L191.167 59H190.143L187.967 49.592L187.823 59H186.351ZM196.946 59V46.04H201.97V47.384H198.754V51.672H201.362V52.952H198.754V57.704H202.002V59H196.946ZM203.461 59V46.04H206.069C206.933 46.04 207.648 46.1573 208.213 46.392C208.778 46.616 209.194 46.984 209.461 47.496C209.738 47.9973 209.877 48.6587 209.877 49.48C209.877 49.9813 209.824 50.44 209.717 50.856C209.61 51.2613 209.44 51.608 209.205 51.896C208.97 52.1733 208.661 52.376 208.277 52.504L210.117 59H208.373L206.677 52.92H205.269V59H203.461ZM205.269 51.624H205.957C206.469 51.624 206.885 51.56 207.205 51.432C207.525 51.304 207.76 51.0853 207.909 50.776C208.058 50.4667 208.133 50.0347 208.133 49.48C208.133 48.7227 207.994 48.1787 207.717 47.848C207.44 47.5067 206.89 47.336 206.069 47.336H205.269V51.624ZM218.47 59.144C217.724 59.144 217.1 58.984 216.598 58.664C216.108 58.344 215.734 57.9013 215.478 57.336C215.222 56.7707 215.073 56.1147 215.03 55.368L216.63 54.936C216.662 55.3947 216.732 55.8373 216.838 56.264C216.956 56.6907 217.142 57.0427 217.398 57.32C217.654 57.5867 218.012 57.72 218.47 57.72C218.94 57.72 219.292 57.592 219.526 57.336C219.772 57.0693 219.894 56.6907 219.894 56.2C219.894 55.6133 219.761 55.144 219.494 54.792C219.228 54.4293 218.892 54.0667 218.486 53.704L216.31 51.784C215.884 51.4107 215.569 51.0053 215.366 50.568C215.164 50.12 215.062 49.5707 215.062 48.92C215.062 47.9707 215.334 47.2347 215.878 46.712C216.422 46.1893 217.164 45.928 218.102 45.928C218.614 45.928 219.062 45.9973 219.446 46.136C219.841 46.264 220.166 46.4667 220.422 46.744C220.689 47.0213 220.897 47.3733 221.046 47.8C221.206 48.216 221.313 48.7067 221.366 49.272L219.83 49.688C219.798 49.2613 219.734 48.872 219.638 48.52C219.542 48.1573 219.372 47.8693 219.126 47.656C218.892 47.432 218.55 47.32 218.102 47.32C217.654 47.32 217.302 47.4427 217.046 47.688C216.801 47.9227 216.678 48.2747 216.678 48.744C216.678 49.1387 216.742 49.464 216.87 49.72C217.009 49.976 217.228 50.2373 217.526 50.504L219.718 52.424C220.209 52.8507 220.641 53.3627 221.014 53.96C221.388 54.5467 221.574 55.2453 221.574 56.056C221.574 56.696 221.441 57.2507 221.174 57.72C220.908 58.1787 220.54 58.5307 220.07 58.776C219.612 59.0213 219.078 59.144 218.47 59.144ZM226.321 59.144C225.382 59.144 224.662 58.9573 224.161 58.584C223.659 58.2107 223.318 57.688 223.137 57.016C222.955 56.3333 222.865 55.5387 222.865 54.632V46.04H224.593V54.712C224.593 55.2667 224.63 55.7733 224.705 56.232C224.779 56.6907 224.939 57.0533 225.185 57.32C225.441 57.5867 225.819 57.72 226.321 57.72C226.833 57.72 227.211 57.5867 227.457 57.32C227.702 57.0533 227.862 56.6907 227.937 56.232C228.011 55.7733 228.049 55.2667 228.049 54.712V46.04H229.761V54.632C229.761 55.5387 229.67 56.3333 229.489 57.016C229.307 57.688 228.966 58.2107 228.465 58.584C227.974 58.9573 227.259 59.144 226.321 59.144ZM231.664 59V46.04H234.88C235.659 46.04 236.278 46.184 236.736 46.472C237.206 46.7493 237.547 47.1547 237.76 47.688C237.974 48.2213 238.08 48.8667 238.08 49.624C238.08 50.3067 237.958 50.8987 237.712 51.4C237.478 51.9013 237.126 52.2907 236.656 52.568C236.187 52.8347 235.6 52.968 234.896 52.968H233.472V59H231.664ZM233.472 51.672H234.304C234.827 51.672 235.238 51.6133 235.536 51.496C235.835 51.3787 236.048 51.176 236.176 50.888C236.304 50.5893 236.368 50.1733 236.368 49.64C236.368 49.0213 236.32 48.5467 236.224 48.216C236.139 47.8853 235.952 47.656 235.664 47.528C235.376 47.4 234.928 47.336 234.32 47.336H233.472V51.672ZM239.352 59V46.04H242.568C243.346 46.04 243.965 46.184 244.424 46.472C244.893 46.7493 245.234 47.1547 245.448 47.688C245.661 48.2213 245.768 48.8667 245.768 49.624C245.768 50.3067 245.645 50.8987 245.4 51.4C245.165 51.9013 244.813 52.2907 244.344 52.568C243.874 52.8347 243.288 52.968 242.584 52.968H241.16V59H239.352ZM241.16 51.672H241.992C242.514 51.672 242.925 51.6133 243.224 51.496C243.522 51.3787 243.736 51.176 243.864 50.888C243.992 50.5893 244.056 50.1733 244.056 49.64C244.056 49.0213 244.008 48.5467 243.912 48.216C243.826 47.8853 243.64 47.656 243.352 47.528C243.064 47.4 242.616 47.336 242.008 47.336H241.16V51.672ZM250.351 59.144C249.477 59.144 248.778 58.9733 248.255 58.632C247.733 58.2907 247.359 57.8053 247.135 57.176C246.911 56.536 246.799 55.7893 246.799 54.936V50.024C246.799 49.1707 246.911 48.44 247.135 47.832C247.37 47.2133 247.743 46.744 248.255 46.424C248.778 46.0933 249.477 45.928 250.351 45.928C251.226 45.928 251.919 46.0933 252.431 46.424C252.943 46.7547 253.311 47.224 253.535 47.832C253.77 48.44 253.887 49.1707 253.887 50.024V54.952C253.887 55.7947 253.77 56.5307 253.535 57.16C253.311 57.7893 252.943 58.28 252.431 58.632C251.919 58.9733 251.226 59.144 250.351 59.144ZM250.351 57.72C250.831 57.72 251.194 57.624 251.439 57.432C251.685 57.2293 251.85 56.952 251.935 56.6C252.021 56.2373 252.063 55.816 252.063 55.336V49.656C252.063 49.176 252.021 48.7653 251.935 48.424C251.85 48.072 251.685 47.8053 251.439 47.624C251.194 47.432 250.831 47.336 250.351 47.336C249.871 47.336 249.503 47.432 249.247 47.624C249.002 47.8053 248.837 48.072 248.751 48.424C248.666 48.7653 248.623 49.176 248.623 49.656V55.336C248.623 55.816 248.666 56.2373 248.751 56.6C248.837 56.952 249.002 57.2293 249.247 57.432C249.503 57.624 249.871 57.72 250.351 57.72ZM255.664 59V46.04H258.272C259.136 46.04 259.851 46.1573 260.416 46.392C260.982 46.616 261.398 46.984 261.664 47.496C261.942 47.9973 262.08 48.6587 262.08 49.48C262.08 49.9813 262.027 50.44 261.92 50.856C261.814 51.2613 261.643 51.608 261.408 51.896C261.174 52.1733 260.864 52.376 260.48 52.504L262.32 59H260.576L258.88 52.92H257.472V59H255.664ZM257.472 51.624H258.16C258.672 51.624 259.088 51.56 259.408 51.432C259.728 51.304 259.963 51.0853 260.112 50.776C260.262 50.4667 260.336 50.0347 260.336 49.48C260.336 48.7227 260.198 48.1787 259.92 47.848C259.643 47.5067 259.094 47.336 258.272 47.336H257.472V51.624ZM265.385 59V47.384H263.193V46.04H269.321V47.384H267.193V59H265.385ZM272.155 55.752V53.768C272.688 53.2987 273.168 52.8293 273.595 52.36C274.032 51.8907 274.379 51.3947 274.635 50.872C274.891 50.3493 275.019 49.7787 275.019 49.16C275.019 48.6587 274.885 48.2427 274.619 47.912C274.363 47.5813 273.984 47.416 273.483 47.416C273.056 47.416 272.715 47.5387 272.459 47.784C272.213 48.0293 272.091 48.344 272.091 48.728C272.091 48.8667 272.101 49 272.123 49.128C272.144 49.2453 272.171 49.3787 272.203 49.528L270.603 49.832C270.549 49.672 270.507 49.5067 270.475 49.336C270.443 49.1547 270.427 48.984 270.427 48.824C270.427 47.9707 270.693 47.2773 271.227 46.744C271.76 46.2 272.512 45.928 273.483 45.928C274.496 45.928 275.285 46.216 275.851 46.792C276.416 47.3573 276.699 48.1627 276.699 49.208C276.699 49.9227 276.565 50.568 276.299 51.144C276.032 51.72 275.669 52.2533 275.211 52.744C274.752 53.2347 274.24 53.72 273.674 54.2V55.752H272.155ZM272.075 59V57.24H273.786V59H272.075Z" fill="black"/>
<path d="M65.432 87V75.384H63.24V74.04H69.368V75.384H67.24V87H65.432ZM70.6174 87V74.04H75.6414V75.384H72.4254V79.672H75.0334V80.952H72.4254V85.704H75.6734V87H70.6174ZM80.189 87.144C79.4423 87.144 78.8183 86.984 78.317 86.664C77.8263 86.344 77.453 85.9013 77.197 85.336C76.941 84.7707 76.7917 84.1147 76.749 83.368L78.349 82.936C78.381 83.3947 78.4503 83.8373 78.557 84.264C78.6743 84.6907 78.861 85.0427 79.117 85.32C79.373 85.5867 79.7303 85.72 80.189 85.72C80.6583 85.72 81.0103 85.592 81.245 85.336C81.4903 85.0693 81.613 84.6907 81.613 84.2C81.613 83.6133 81.4797 83.144 81.213 82.792C80.9463 82.4293 80.6103 82.0667 80.205 81.704L78.029 79.784C77.6023 79.4107 77.2877 79.0053 77.085 78.568C76.8823 78.12 76.781 77.5707 76.781 76.92C76.781 75.9707 77.053 75.2347 77.597 74.712C78.141 74.1893 78.8823 73.928 79.821 73.928C80.333 73.928 80.781 73.9973 81.165 74.136C81.5597 74.264 81.885 74.4667 82.141 74.744C82.4077 75.0213 82.6157 75.3733 82.765 75.8C82.925 76.216 83.0317 76.7067 83.085 77.272L81.549 77.688C81.517 77.2613 81.453 76.872 81.357 76.52C81.261 76.1573 81.0903 75.8693 80.845 75.656C80.6103 75.432 80.269 75.32 79.821 75.32C79.373 75.32 79.021 75.4427 78.765 75.688C78.5197 75.9227 78.397 76.2747 78.397 76.744C78.397 77.1387 78.461 77.464 78.589 77.72C78.7277 77.976 78.9463 78.2373 79.245 78.504L81.437 80.424C81.9277 80.8507 82.3597 81.3627 82.733 81.96C83.1063 82.5467 83.293 83.2453 83.293 84.056C83.293 84.696 83.1597 85.2507 82.893 85.72C82.6263 86.1787 82.2583 86.5307 81.789 86.776C81.3303 87.0213 80.797 87.144 80.189 87.144ZM86.1195 87V75.384H83.9275V74.04H90.0555V75.384H87.9275V87H86.1195ZM96.3851 87V75.384H94.1931V74.04H100.321V75.384H98.1931V87H96.3851ZM101.571 87V74.04H106.595V75.384H103.379V79.672H105.987V80.952H103.379V85.704H106.627V87H101.571ZM111.142 87.144C110.395 87.144 109.771 86.984 109.27 86.664C108.779 86.344 108.406 85.9013 108.15 85.336C107.894 84.7707 107.745 84.1147 107.702 83.368L109.302 82.936C109.334 83.3947 109.403 83.8373 109.51 84.264C109.627 84.6907 109.814 85.0427 110.07 85.32C110.326 85.5867 110.683 85.72 111.142 85.72C111.611 85.72 111.963 85.592 112.198 85.336C112.443 85.0693 112.566 84.6907 112.566 84.2C112.566 83.6133 112.433 83.144 112.166 82.792C111.899 82.4293 111.563 82.0667 111.158 81.704L108.982 79.784C108.555 79.4107 108.241 79.0053 108.038 78.568C107.835 78.12 107.734 77.5707 107.734 76.92C107.734 75.9707 108.006 75.2347 108.55 74.712C109.094 74.1893 109.835 73.928 110.774 73.928C111.286 73.928 111.734 73.9973 112.118 74.136C112.513 74.264 112.838 74.4667 113.094 74.744C113.361 75.0213 113.569 75.3733 113.718 75.8C113.878 76.216 113.985 76.7067 114.038 77.272L112.502 77.688C112.47 77.2613 112.406 76.872 112.31 76.52C112.214 76.1573 112.043 75.8693 111.798 75.656C111.563 75.432 111.222 75.32 110.774 75.32C110.326 75.32 109.974 75.4427 109.718 75.688C109.473 75.9227 109.35 76.2747 109.35 76.744C109.35 77.1387 109.414 77.464 109.542 77.72C109.681 77.976 109.899 78.2373 110.198 78.504L112.39 80.424C112.881 80.8507 113.313 81.3627 113.686 81.96C114.059 82.5467 114.246 83.2453 114.246 84.056C114.246 84.696 114.113 85.2507 113.846 85.72C113.579 86.1787 113.211 86.5307 112.742 86.776C112.283 87.0213 111.75 87.144 111.142 87.144ZM117.073 87V75.384H114.881V74.04H121.009V75.384H118.881V87H117.073ZM127.338 87V75.384H125.146V74.04H131.274V75.384H129.146V87H127.338ZM132.524 87V74.04H137.548V75.384H134.332V79.672H136.94V80.952H134.332V85.704H137.58V87H132.524ZM142.095 87.144C141.349 87.144 140.725 86.984 140.223 86.664C139.733 86.344 139.359 85.9013 139.103 85.336C138.847 84.7707 138.698 84.1147 138.655 83.368L140.255 82.936C140.287 83.3947 140.357 83.8373 140.463 84.264C140.581 84.6907 140.767 85.0427 141.023 85.32C141.279 85.5867 141.637 85.72 142.095 85.72C142.565 85.72 142.917 85.592 143.151 85.336C143.397 85.0693 143.519 84.6907 143.519 84.2C143.519 83.6133 143.386 83.144 143.119 82.792C142.853 82.4293 142.517 82.0667 142.111 81.704L139.935 79.784C139.509 79.4107 139.194 79.0053 138.991 78.568C138.789 78.12 138.687 77.5707 138.687 76.92C138.687 75.9707 138.959 75.2347 139.503 74.712C140.047 74.1893 140.789 73.928 141.727 73.928C142.239 73.928 142.687 73.9973 143.071 74.136C143.466 74.264 143.791 74.4667 144.047 74.744C144.314 75.0213 144.522 75.3733 144.671 75.8C144.831 76.216 144.938 76.7067 144.991 77.272L143.455 77.688C143.423 77.2613 143.359 76.872 143.263 76.52C143.167 76.1573 142.997 75.8693 142.751 75.656C142.517 75.432 142.175 75.32 141.727 75.32C141.279 75.32 140.927 75.4427 140.671 75.688C140.426 75.9227 140.303 76.2747 140.303 76.744C140.303 77.1387 140.367 77.464 140.495 77.72C140.634 77.976 140.853 78.2373 141.151 78.504L143.343 80.424C143.834 80.8507 144.266 81.3627 144.639 81.96C145.013 82.5467 145.199 83.2453 145.199 84.056C145.199 84.696 145.066 85.2507 144.799 85.72C144.533 86.1787 144.165 86.5307 143.695 86.776C143.237 87.0213 142.703 87.144 142.095 87.144ZM148.026 87V75.384H145.834V74.04H151.962V75.384H149.834V87H148.026ZM158.291 87V75.384H156.099V74.04H162.227V75.384H160.099V87H158.291ZM163.477 87V74.04H168.501V75.384H165.285V79.672H167.893V80.952H165.285V85.704H168.533V87H163.477ZM173.048 87.144C172.302 87.144 171.678 86.984 171.176 86.664C170.686 86.344 170.312 85.9013 170.056 85.336C169.8 84.7707 169.651 84.1147 169.608 83.368L171.208 82.936C171.24 83.3947 171.31 83.8373 171.416 84.264C171.534 84.6907 171.72 85.0427 171.976 85.32C172.232 85.5867 172.59 85.72 173.048 85.72C173.518 85.72 173.87 85.592 174.104 85.336C174.35 85.0693 174.472 84.6907 174.472 84.2C174.472 83.6133 174.339 83.144 174.072 82.792C173.806 82.4293 173.47 82.0667 173.064 81.704L170.888 79.784C170.462 79.4107 170.147 79.0053 169.944 78.568C169.742 78.12 169.64 77.5707 169.64 76.92C169.64 75.9707 169.912 75.2347 170.456 74.712C171 74.1893 171.742 73.928 172.68 73.928C173.192 73.928 173.64 73.9973 174.024 74.136C174.419 74.264 174.744 74.4667 175 74.744C175.267 75.0213 175.475 75.3733 175.624 75.8C175.784 76.216 175.891 76.7067 175.944 77.272L174.408 77.688C174.376 77.2613 174.312 76.872 174.216 76.52C174.12 76.1573 173.95 75.8693 173.704 75.656C173.47 75.432 173.128 75.32 172.68 75.32C172.232 75.32 171.88 75.4427 171.624 75.688C171.379 75.9227 171.256 76.2747 171.256 76.744C171.256 77.1387 171.32 77.464 171.448 77.72C171.587 77.976 171.806 78.2373 172.104 78.504L174.296 80.424C174.787 80.8507 175.219 81.3627 175.592 81.96C175.966 82.5467 176.152 83.2453 176.152 84.056C176.152 84.696 176.019 85.2507 175.752 85.72C175.486 86.1787 175.118 86.5307 174.648 86.776C174.19 87.0213 173.656 87.144 173.048 87.144ZM178.979 87V75.384H176.787V74.04H182.915V75.384H180.787V87H178.979Z" fill="black"/>
</g>
<defs>
<clipPath id="clip0_4_559">
<rect width="498" height="89" fill="white" transform="translate(1 105)"/>
</clipPath>
<clipPath id="clip1_4_559">
<rect width="498" height="89" fill="white" transform="translate(1 194)"/>
</clipPath>
<clipPath id="clip2_4_559">
<rect width="498" height="88" fill="white" transform="translate(1 283)"/>
</clipPath>
<clipPath id="clip3_4_559">
<rect width="498" height="106" fill="white" transform="translate(1 1)"/>
</clipPath>
</defs>
</svg>
